<svg width="24" height="25" viewBox="0 0 24 25" fill="none" xmlns="http://www.w3.org/2000/svg">
<path d="M15.5001 14.4999H14.7101L14.4301 14.2299C15.6301 12.8299 16.2501 10.9199 15.9101 8.88989C15.4401 6.10989 13.1201 3.88989 10.3201 3.54989C6.09014 3.02989 2.53014 6.58989 3.05014 10.8199C3.39014 13.6199 5.61014 15.9399 8.39014 16.4099C10.4201 16.7499 12.3301 16.1299 13.7301 14.9299L14.0001 15.2099V15.9999L18.2501 20.2499C18.6601 20.6599 19.3301 20.6599 19.7401 20.2499C20.1501 19.8399 20.1501 19.1699 19.7401 18.7599L15.5001 14.4999ZM9.50014 14.4999C7.01014 14.4999 5.00014 12.4899 5.00014 9.99989C5.00014 7.50989 7.01014 5.49989 9.50014 5.49989C11.9901 5.49989 14.0001 7.50989 14.0001 9.99989C14.0001 12.4899 11.9901 14.4999 9.50014 14.4999Z" fill="#A2A2A2"/>
</svg>
